<?xml version="1.0" encoding="utf-8"?>
<!-- Generator: Adobe Illustrator 19.0.0, SVG Export Plug-In . SVG Version: 6.00 Build 0)  -->
<svg version="1.1" id="Layer_1" xmlns="http://www.w3.org/2000/svg" xmlns:xlink="http://www.w3.org/1999/xlink" x="0px" y="0px"
	 width="20rem" height="20rem" viewBox="0 0 612 792" style="enable-background:new 0 0 612 792;" xml:space="preserve">
<style type="text/css">
	.st0{fill:#FFFFFF;}
</style>
<g id="XMLID_6_">
	<polygon id="XMLID_11_" class="st0" points="216.6,429 209.1,429 172.6,429 144.1,457.5 144.1,513.9 163.9,513.9 163.9,448.8 
		196.8,448.8 	"/>
	<polygon id="XMLID_7_" class="st0" points="229,484.9 229,448.8 229,446.6 209.1,466.5 209.1,488.3 209.1,488.3 209.1,494.1 
		169.7,494.1 169.7,513.9 199.9,513.9 	"/>
</g>
<rect id="XMLID_2_" x="169.7" y="460.8" class="st0" width="5.3" height="18.7"/>
<rect id="XMLID_4_" x="176.2" y="457.4" class="st0" width="5.3" height="22"/>
<rect id="XMLID_1_" x="182.7" y="466" class="st0" width="5.3" height="13.5"/>
<rect id="XMLID_8_" x="189.1" y="460.8" class="st0" width="5.3" height="18.7"/>
<rect id="XMLID_9_" x="195.6" y="456" class="st0" width="5.3" height="23.4"/>
<rect id="XMLID_10_" x="202.1" y="473.1" class="st0" width="5.3" height="6.3"/>
<rect id="XMLID_3_" x="169.7" y="478.9" class="st0" width="37.7" height="3.8"/>
<rect id="XMLID_12_" x="169.7" y="484.4" class="st0" width="37.7" height="3.8"/>
<rect id="XMLID_13_" x="169.7" y="490.5" class="st0" width="37.7" height="3.8"/>
</svg>
